<svg xmlns="http://www.w3.org/2000/svg" viewBox="0 0 32 32" fill="none">
  <rect width="32" height="32" rx="6" fill="url(#gradient)"/>
  <path d="M22.428 18.428a2 2 0 00-1.022-.547l-2.387-.477a6 6 0 00-3.86.517l-.318.158a6 6 0 01-3.86.517L8.05 18.21a2 2 0 00-1.806.547M10 7h12l-1 1v5.172a2 2 0 00.586 1.414l5 5c1.26 1.26.367 3.414-1.415 3.414H6.828c-1.782 0-2.674-2.154-1.414-3.414l5-5A2 2 0 0011 13.172V8L10 7z"
    stroke="white"
    stroke-width="1.5"
    stroke-linecap="round"
    stroke-linejoin="round"/>
  <defs>
    <linearGradient id="gradient" x1="0" y1="0" x2="32" y2="32">
      <stop offset="0%" stop-color="#38bdf8"/>
      <stop offset="100%" stop-color="#2563eb"/>
    </linearGradient>
  </defs>
</svg>
